<?xml version="1.0" standalone="no"?>
<!DOCTYPE svg PUBLIC "-//W3C//DTD SVG 20010904//EN"
 "http://www.w3.org/TR/2001/REC-SVG-20010904/DTD/svg10.dtd">
<svg version="1.0" xmlns="http://www.w3.org/2000/svg"
 width="700.000000pt" height="700.000000pt" viewBox="0 0 700.000000 700.000000"
 preserveAspectRatio="xMidYMid meet">
<metadata>
Created by potrace 1.11, written by Peter Selinger 2001-2013
</metadata>
<g transform="translate(0.000000,700.000000) scale(0.100000,-0.100000)"
fill="#000000" stroke="none">
<path d="M3630 6982 c-108 -74 -200 -231 -216 -366 l-7 -54 -41 19 c-116 53
-212 1 -251 -136 -54 -185 -3 -473 136 -774 69 -149 94 -296 92 -541 -1 -166
-17 -289 -59 -437 -29 -105 -30 -110 -42 -148 -11 -34 -70 -168 -102 -233 -12
-24 -20 -45 -18 -47 2 -2 28 -21 58 -44 30 -22 60 -44 65 -48 6 -5 60 -44 120
-88 61 -44 115 -83 120 -88 50 -41 541 -396 546 -394 3 1 42 34 85 74 267 244
577 399 914 458 96 17 264 22 310 9 41 -11 380 -14 440 -4 30 5 70 12 89 15
112 18 269 97 312 156 49 69 43 149 -17 214 -38 42 -39 45 -21 45 31 -1 126
61 187 120 89 87 143 193 146 287 3 82 -8 113 -57 162 -53 53 -126 76 -244 76
-153 0 -215 -14 -440 -98 -110 -41 -337 -150 -470 -226 -38 -22 -77 -44 -85
-48 -116 -55 -918 -583 -994 -654 -35 -34 -125 -90 -157 -99 -63 -18 -72 16
-24 90 32 50 254 284 371 391 205 186 536 407 909 604 354 188 485 280 520
367 33 85 -12 174 -115 226 -27 13 -60 17 -140 17 -58 0 -124 -3 -148 -6 -24
-4 -41 -4 -40 0 2 3 18 34 36 69 69 133 120 331 117 454 -6 212 -146 264 -385
143 -102 -52 -191 -116 -286 -207 l-51 -49 -13 73 c-35 197 -105 296 -221 313
-80 12 -132 -22 -180 -118 -26 -50 -77 -225 -92 -312 -29 -166 -94 -481 -132
-635 -80 -324 -182 -584 -343 -873 -42 -76 -84 -153 -94 -170 -21 -40 -77 -94
-103 -99 -41 -7 -34 91 15 212 41 102 193 608 264 882 72 274 132 578 151 759
3 30 8 72 10 94 10 90 5 295 -9 375 -24 136 -56 209 -120 278 l-30 32 -120 -1
c-97 0 -126 -3 -146 -17z"/>
<path d="M2554 4255 c-166 -35 -539 -232 -716 -378 l-27 -22 72 -53 c119 -88
556 -408 654 -480 88 -64 108 -87 118 -141 6 -35 -23 -89 -58 -107 -55 -29
-91 -21 -170 37 -40 29 -170 125 -290 214 -120 88 -228 167 -240 175 -13 8
-76 55 -141 104 l-119 89 -20 -24 c-10 -13 -37 -44 -59 -69 -51 -58 -175 -244
-226 -340 -51 -96 -117 -251 -175 -411 -25 -69 -67 -179 -92 -245 -26 -65 -71
-190 -100 -276 l-53 -156 21 -19 c22 -20 182 -138 247 -183 19 -14 40 -28 45
-32 6 -5 49 -38 97 -73 110 -82 123 -100 119 -174 -2 -37 -61 -86 -108 -89
-47 -3 -52 0 -366 234 -67 50 -123 90 -124 89 -3 -2 -86 -287 -109 -375 -8
-30 -24 -88 -35 -128 -11 -40 -22 -81 -24 -90 -2 -9 -29 -116 -59 -237 -31
-121 -58 -229 -60 -240 -2 -11 -7 -31 -10 -45 -23 -92 -28 -298 -9 -385 34
-159 140 -299 295 -384 l73 -41 199 0 199 0 86 37 c76 32 237 117 251 132 3 4
21 15 40 25 19 11 58 34 85 51 28 18 100 63 160 100 472 293 1030 676 1180
812 11 10 37 31 58 46 20 16 35 32 32 37 -3 5 -188 143 -411 306 -223 163
-411 306 -419 318 -8 11 -15 39 -15 62 0 55 35 98 90 112 48 12 60 6 196 -93
52 -38 108 -79 124 -90 16 -11 135 -99 265 -195 130 -96 267 -197 305 -224
l69 -48 28 22 c79 61 243 224 317 314 213 259 360 580 420 916 3 19 8 44 10
55 10 50 27 206 30 260 3 82 -17 199 -47 274 -63 155 -150 257 -340 397 -435
321 -681 500 -726 528 -57 36 -183 86 -255 102 -75 15 -204 15 -282 -1z"/>
</g>
</svg>
